<svg width="30" height="30" viewBox="0 0 30 30" fill="none" xmlns="http://www.w3.org/2000/svg">
<path d="M22.5937 1.9425L27.8099 7.38001V28.0575H8.32397V28.125H27.8765V7.44844L22.5937 1.9425Z" fill="#909090"/>
<path d="M22.5982 2H8V28H28V7.46756L22.5982 2Z" fill="#F4F4F4"/>
<path d="M8.11416 3.28125H2.12354V9.68156H20.9673V3.28125H8.11416Z" fill="#7A7B7C"/>
<path d="M21.0675 9.57285H2.24536V3.16785H21.0675V9.57285Z" fill="#DD2025"/>
<path d="M8.4863 4.25063H7.26099V8.75063H8.22474V7.23281L8.43755 7.245C8.6444 7.24215 8.84936 7.20509 9.04411 7.13531C9.21532 7.07718 9.37267 6.9843 9.5063 6.8625C9.64333 6.7476 9.75099 6.6017 9.82036 6.43688C9.91528 6.1638 9.94889 5.87316 9.9188 5.58563C9.91345 5.38018 9.87743 5.17668 9.81192 4.98188C9.75289 4.84107 9.66511 4.71414 9.55421 4.60921C9.4433 4.50428 9.31172 4.42366 9.16786 4.3725C9.04385 4.32657 8.91532 4.29389 8.78442 4.275C8.68555 4.2589 8.58554 4.25075 8.48536 4.25063M8.30817 6.40125H8.22474V5.01375H8.40567C8.48553 5.00799 8.56566 5.02025 8.64014 5.04962C8.71462 5.07899 8.78155 5.12472 8.83599 5.18344C8.94879 5.33439 9.00904 5.51813 9.00755 5.70656C9.00755 5.93719 9.00755 6.14625 8.79942 6.29344C8.64952 6.37601 8.47883 6.41408 8.30817 6.40125ZM11.7497 4.23844C11.6457 4.23844 11.5444 4.24594 11.4732 4.24875L11.25 4.25438H10.5188V8.75438H11.3794C11.7083 8.76283 12.0356 8.70711 12.3432 8.59031C12.5908 8.49253 12.81 8.33427 12.9807 8.13C13.148 7.92483 13.2674 7.68495 13.3304 7.42781C13.4043 7.13712 13.4402 6.83806 13.4372 6.53813C13.4556 6.1839 13.4282 5.82878 13.3557 5.48156C13.2863 5.22627 13.1578 4.99088 12.9807 4.79438C12.8417 4.63548 12.6708 4.50769 12.4791 4.41938C12.3149 4.34325 12.1421 4.28722 11.9644 4.2525C11.8938 4.24092 11.8223 4.23559 11.7507 4.23656M11.58 7.9275H11.4863V5.055H11.4985C11.6918 5.03265 11.8873 5.06753 12.061 5.15531C12.1882 5.25687 12.2918 5.38481 12.3647 5.53031C12.4434 5.68344 12.4888 5.85151 12.4979 6.02344C12.5063 6.22969 12.4979 6.39844 12.4979 6.53813C12.5013 6.69903 12.491 6.85993 12.4669 7.01906C12.4374 7.18225 12.384 7.3402 12.3085 7.48781C12.2231 7.62548 12.1065 7.7411 11.9682 7.82531C11.8526 7.90032 11.7156 7.93523 11.5782 7.92469M16.3407 4.25438H14.0625V8.75438H15.0263V6.96938H16.245V6.13313H15.0263V5.09063H16.3388V4.25438" fill="#464648"/>
<path d="M20.4196 18.989C20.4196 18.989 23.4084 18.4472 23.4084 19.4681C23.4084 20.489 21.5568 20.0737 20.4196 18.989ZM18.21 19.0669C17.735 19.1715 17.2722 19.3251 16.829 19.5253L17.204 18.6815C17.579 17.8378 17.9681 16.6875 17.9681 16.6875C18.4144 17.4413 18.9352 18.1486 19.5225 18.7987C19.0803 18.8646 18.6422 18.9547 18.21 19.0687V19.0669ZM17.0268 12.9731C17.0268 12.0834 17.3146 11.8406 17.5387 11.8406C17.7628 11.8406 18.015 11.9484 18.0234 12.7209C17.9503 13.4977 17.7876 14.2634 17.5387 15.0028C17.1965 14.3824 17.0199 13.6844 17.0259 12.9759L17.0268 12.9731ZM12.6684 22.8319C11.7515 22.2834 14.5912 20.595 15.1059 20.5406C15.1031 20.5415 13.6284 23.4056 12.6684 22.8319ZM24.2812 19.589C24.2718 19.4953 24.1875 18.4575 22.3406 18.5015C21.5707 18.488 20.8012 18.5423 20.0409 18.6637C19.3039 17.9219 18.6695 17.0848 18.1546 16.1747C18.4788 15.2365 18.6753 14.259 18.7387 13.2684C18.7115 12.1434 18.4425 11.4984 17.58 11.5078C16.7175 11.5172 16.5918 12.2719 16.7053 13.395C16.8163 14.1497 17.0259 14.8866 17.3287 15.5869C17.3287 15.5869 16.9303 16.8272 16.4034 18.0609C15.8765 19.2947 15.5165 19.9415 15.5165 19.9415C14.6002 20.2395 13.7376 20.6826 12.9618 21.254C12.1893 21.9731 11.8753 22.5253 12.2821 23.0775C12.6328 23.5537 13.86 23.6615 14.9568 22.2244C15.5386 21.4813 16.071 20.7009 16.5506 19.8881C16.5506 19.8881 18.2231 19.4297 18.7434 19.304C19.2637 19.1784 19.8928 19.079 19.8928 19.079C19.8928 19.079 21.42 20.6156 22.8928 20.5612C24.3656 20.5069 24.2943 19.6809 24.285 19.5909" fill="#DD2025"/>
<path d="M22.4568 1.94714V7.45308H27.7377L22.4568 1.94714Z" fill="#909090"/>
<path d="M22.5291 1.875V7.38094H27.81L22.5291 1.875Z" fill="#F4F4F4"/>
<path d="M8.41403 4.17848H7.18872V8.67848H8.15622V7.16161L8.36997 7.17379C8.57683 7.17094 8.78178 7.13388 8.97653 7.06411C9.14774 7.00598 9.30509 6.9131 9.43872 6.79129C9.57472 6.67608 9.6814 6.5302 9.74997 6.36567C9.84489 6.09259 9.8785 5.80196 9.84841 5.51442C9.84306 5.30897 9.80704 5.10547 9.74153 4.91067C9.6825 4.76987 9.59472 4.64294 9.48382 4.538C9.37291 4.43307 9.24132 4.35245 9.09747 4.30129C8.97289 4.25492 8.84372 4.22192 8.71216 4.20286C8.61328 4.18676 8.51327 4.1786 8.4131 4.17848M8.23591 6.32911H8.15247V4.94161H8.33435C8.4142 4.93585 8.49433 4.94811 8.56881 4.97748C8.6433 5.00685 8.71023 5.05258 8.76466 5.11129C8.87746 5.26225 8.93771 5.44599 8.93622 5.63442C8.93622 5.86505 8.93622 6.07411 8.7281 6.22129C8.5782 6.30386 8.4075 6.341 8.23685 6.32817M11.6775 4.16629C11.5734 4.16629 11.4722 4.17379 11.4009 4.17661L11.1806 4.18223H10.4493V8.68223H11.31C11.6388 8.69069 11.9662 8.63496 12.2737 8.51817C12.5213 8.42038 12.7405 8.26213 12.9112 8.05786C13.0785 7.85269 13.198 7.61281 13.2609 7.35567C13.3349 7.06498 13.3708 6.76592 13.3678 6.46598C13.3861 6.11175 13.3587 5.75664 13.2862 5.40942C13.2168 5.15413 13.0884 4.91873 12.9112 4.72223C12.7723 4.56334 12.6014 4.43555 12.4097 4.34723C12.2454 4.27111 12.0726 4.21508 11.895 4.18036C11.8243 4.16878 11.7528 4.16344 11.6812 4.16442M11.5106 7.85536H11.4168V4.98286H11.429C11.6223 4.96051 11.8179 4.99539 11.9915 5.08317C12.1187 5.18473 12.2224 5.31267 12.2953 5.45817C12.374 5.6113 12.4194 5.77936 12.4284 5.95129C12.4368 6.15754 12.4284 6.32629 12.4284 6.46598C12.4319 6.62688 12.4215 6.78779 12.3975 6.94692C12.368 7.11011 12.3146 7.26805 12.239 7.41567C12.1537 7.55334 12.0371 7.66896 11.8987 7.75317C11.7831 7.82817 11.6461 7.86309 11.5087 7.85255M16.2684 4.18223H13.9903V8.68223H14.954V6.89723H16.1728V6.06098H14.954V5.01848H16.2665V4.18223" fill="white"/>
</svg>
