<svg width="37" height="26" viewBox="0 0 37 26" fill="none" xmlns="http://www.w3.org/2000/svg">
<path d="M4.62891 6.45312C4.30859 6.24219 3.90625 6.13672 3.42188 6.13672C2.45703 6.13672 1.97461 6.67773 1.97461 7.75977C1.97461 9.04492 2.47656 9.6875 3.48047 9.6875C3.88672 9.6875 4.26953 9.63086 4.62891 9.51758V6.45312ZM6.18164 10.6309C5.24023 10.877 4.32031 11 3.42188 11C1.43359 11 0.439453 9.93359 0.439453 7.80078C0.439453 5.83203 1.41211 4.84766 3.35742 4.84766C3.77148 4.84766 4.19531 4.94531 4.62891 5.14062V2.62109H6.18164V10.6309ZM9.19922 9.57617C9.55469 9.68945 9.9668 9.74609 10.4355 9.74609C11.373 9.74609 11.8418 9.08398 11.8418 7.75977C11.8418 6.67773 11.4375 6.13672 10.6289 6.13672C10.1055 6.13672 9.62891 6.24219 9.19922 6.45312V9.57617ZM7.64648 2.62109H9.19922V5.31641C9.66406 5.00391 10.1816 4.84766 10.752 4.84766C12.502 4.84766 13.377 5.83203 13.377 7.80078C13.377 9.93359 12.375 11 10.3711 11C9.52734 11 8.61914 10.916 7.64648 10.748V2.62109Z" fill="white"/>
<path d="M0.54 21V12.744H1.98V21H0.54ZM5.43553 17.58C5.43553 17.06 5.42353 16.7 5.39953 16.5C5.38353 16.292 5.33953 16.16 5.26753 16.104C5.20353 16.04 5.08353 16.008 4.90753 16.008C4.71553 16.008 4.57953 16.06 4.49953 16.164C4.42753 16.268 4.38353 16.44 4.36753 16.68C4.35153 16.912 4.34353 17.328 4.34353 17.928V21H2.98753V14.88H4.27153L4.31953 15.624H4.41553C4.57553 15.064 4.96753 14.784 5.59153 14.784C5.93553 14.784 6.19153 14.856 6.35953 15C6.52753 15.136 6.63953 15.356 6.69553 15.66C6.75953 15.956 6.79153 16.38 6.79153 16.932V21H5.43553V17.58ZM8.45475 21L7.30275 14.88H8.65875L9.36675 19.416H9.46275L10.1228 14.88H11.4668L10.3148 21H8.45475ZM15.5295 18.348H13.1415C13.1415 18.86 13.1575 19.22 13.1895 19.428C13.2295 19.628 13.3095 19.764 13.4295 19.836C13.5575 19.908 13.7775 19.944 14.0895 19.944C14.3695 19.944 14.8095 19.916 15.4095 19.86V20.928C15.2255 20.976 14.9815 21.016 14.6775 21.048C14.3735 21.08 14.0775 21.096 13.7895 21.096C13.1735 21.096 12.7215 20.992 12.4335 20.784C12.1535 20.576 11.9735 20.264 11.8935 19.848C11.8215 19.424 11.7855 18.792 11.7855 17.952C11.7855 17.112 11.8215 16.484 11.8935 16.068C11.9735 15.644 12.1495 15.324 12.4215 15.108C12.7015 14.892 13.1375 14.784 13.7295 14.784C14.3055 14.784 14.7175 14.884 14.9655 15.084C15.2215 15.284 15.3775 15.588 15.4335 15.996C15.4975 16.396 15.5295 17.044 15.5295 17.94V18.348ZM13.7175 15.936C13.5415 15.936 13.4135 15.968 13.3335 16.032C13.2615 16.088 13.2095 16.216 13.1775 16.416C13.1535 16.616 13.1415 16.948 13.1415 17.412H14.2575V17.352C14.2575 16.904 14.2455 16.588 14.2215 16.404C14.1975 16.212 14.1495 16.088 14.0775 16.032C14.0055 15.968 13.8855 15.936 13.7175 15.936ZM18.7949 17.58C18.7949 17.06 18.7829 16.7 18.7589 16.5C18.7429 16.292 18.6989 16.16 18.6269 16.104C18.5629 16.04 18.4429 16.008 18.2669 16.008C18.0749 16.008 17.9389 16.06 17.8589 16.164C17.7869 16.268 17.7429 16.44 17.7269 16.68C17.7109 16.912 17.7029 17.328 17.7029 17.928V21H16.3469V14.88H17.6309L17.6789 15.624H17.7749C17.9349 15.064 18.3269 14.784 18.9509 14.784C19.2949 14.784 19.5509 14.856 19.7189 15C19.8869 15.136 19.9989 15.356 20.0549 15.66C20.1189 15.956 20.1509 16.38 20.1509 16.932V21H18.7949V17.58ZM21.3461 21V16.032H20.7341V14.88H21.3461V13.104H22.7021V14.88H23.5301V16.032H22.7021V21H21.3461ZM25.8933 21.096C25.3013 21.096 24.8693 21.012 24.5973 20.844C24.3333 20.668 24.1613 20.372 24.0813 19.956C24.0013 19.532 23.9613 18.86 23.9613 17.94C23.9613 17.028 24.0013 16.364 24.0813 15.948C24.1613 15.524 24.3333 15.224 24.5973 15.048C24.8693 14.872 25.3013 14.784 25.8933 14.784C26.4933 14.784 26.9253 14.872 27.1893 15.048C27.4613 15.224 27.6373 15.52 27.7173 15.936C27.7973 16.352 27.8373 17.02 27.8373 17.94C27.8373 18.86 27.7973 19.532 27.7173 19.956C27.6373 20.372 27.4613 20.668 27.1893 20.844C26.9253 21.012 26.4933 21.096 25.8933 21.096ZM25.8933 19.944C26.0933 19.944 26.2293 19.904 26.3013 19.824C26.3813 19.744 26.4293 19.58 26.4453 19.332C26.4693 19.076 26.4813 18.612 26.4813 17.94C26.4813 17.268 26.4693 16.808 26.4453 16.56C26.4293 16.304 26.3813 16.136 26.3013 16.056C26.2293 15.976 26.0933 15.936 25.8933 15.936C25.7013 15.936 25.5653 15.976 25.4853 16.056C25.4133 16.136 25.3653 16.304 25.3413 16.56C25.3253 16.808 25.3173 17.268 25.3173 17.94C25.3173 18.612 25.3253 19.076 25.3413 19.332C25.3653 19.58 25.4133 19.744 25.4853 19.824C25.5653 19.904 25.7013 19.944 25.8933 19.944ZM28.6516 14.88H29.9356L29.9836 15.9H30.0796C30.1836 15.476 30.3316 15.184 30.5236 15.024C30.7156 14.864 30.9756 14.784 31.3036 14.784V16.236C30.8556 16.236 30.5276 16.368 30.3196 16.632C30.1116 16.888 30.0076 17.352 30.0076 18.024V21H28.6516V14.88ZM33.6494 23.436C33.0654 23.436 32.5614 23.404 32.1374 23.34V22.26C32.6174 22.276 33.0174 22.284 33.3374 22.284C33.6574 22.284 33.8814 22.244 34.0094 22.164C34.1454 22.084 34.2294 21.94 34.2614 21.732C34.3014 21.532 34.3214 21.18 34.3214 20.676V20.16H34.2374C34.0774 20.704 33.6894 20.976 33.0734 20.976C32.7294 20.976 32.4734 20.904 32.3054 20.76C32.1374 20.616 32.0214 20.396 31.9574 20.1C31.9014 19.796 31.8734 19.368 31.8734 18.816V14.88H33.2294V18.192C33.2294 18.704 33.2414 19.064 33.2654 19.272C33.2894 19.472 33.3334 19.604 33.3974 19.668C33.4694 19.724 33.5934 19.752 33.7694 19.752C33.9534 19.752 34.0814 19.7 34.1534 19.596C34.2334 19.492 34.2814 19.324 34.2974 19.092C34.3134 18.852 34.3214 18.432 34.3214 17.832V14.88H35.6774V20.256C35.6774 21.088 35.6374 21.716 35.5574 22.14C35.4774 22.564 35.2934 22.884 35.0054 23.1C34.7174 23.324 34.2654 23.436 33.6494 23.436Z" fill="white"/>
<rect x="14" y="10" width="9" height="2" fill="#00CBA8"/>
</svg>
